<?xml version="1.0" standalone="no"?>
<!DOCTYPE svg PUBLIC "-//W3C//DTD SVG 20010904//EN"
 "http://www.w3.org/TR/2001/REC-SVG-20010904/DTD/svg10.dtd">
<svg version="1.0" xmlns="http://www.w3.org/2000/svg"
 width="222" height="233" viewBox="0 0 222.000000 233.000000"
 preserveAspectRatio="xMidYMid meet">
<metadata>
Created by potrace 1.16, written by Peter Selinger 2001-2019
</metadata>
<g transform="translate(0.000000,233.000000) scale(0.100000,-0.100000)"
fill="#E4D6C4" stroke="none">
<path d="M157 2174 c-4 -4 -7 -38 -7 -76 l0 -68 75 0 75 0 0 -99 c0 -312 135
-563 389 -724 l63 -40 -54 -31 c-180 -102 -296 -243 -364 -441 -24 -70 -28
-99 -32 -237 l-4 -157 -72 -3 -71 -3 -3 -72 -3 -73 351 0 c192 0 350 2 350 4
0 2 -19 15 -42 29 -24 14 -62 46 -86 71 l-43 46 -110 0 -109 0 0 123 c0 226
46 346 184 483 64 63 100 89 169 123 48 24 90 41 93 38 3 -3 -41 -63 -98 -134
-111 -137 -144 -199 -160 -299 -8 -53 -6 -77 11 -144 32 -129 97 -218 204
-279 105 -60 120 -61 686 -59 l513 3 1 70 2 70 -72 3 -73 3 0 99 c0 121 -28
274 -68 368 -63 151 -186 289 -323 362 -33 17 -59 35 -59 39 0 4 19 18 43 31
69 38 164 118 223 187 121 143 184 332 184 549 l0 94 75 0 75 0 0 75 0 75
-349 0 c-212 0 -352 -4 -356 -10 -3 -5 7 -16 23 -24 16 -8 50 -38 75 -66 l45
-50 126 0 126 0 0 -102 c-1 -204 -58 -353 -186 -488 -61 -64 -92 -86 -175
-129 -56 -29 -104 -49 -107 -46 -6 5 -3 9 88 110 127 142 176 258 168 398 -11
181 -105 310 -276 379 -57 23 -59 23 -582 26 -289 2 -529 0 -533 -4z m1041
-159 c160 -48 241 -228 172 -385 -30 -69 -52 -100 -170 -239 l-94 -112 -21 28
c-11 15 -59 73 -108 128 -146 168 -184 279 -137 404 12 33 37 78 56 99 19 22
34 43 34 46 0 4 -44 5 -97 4 l-98 -3 -30 -60 c-28 -57 -30 -67 -30 -175 1
-148 19 -198 119 -318 161 -196 163 -202 32 -127 -111 63 -179 118 -233 189
-94 125 -133 247 -133 424 l0 112 343 0 c279 0 353 -3 395 -15z m222 -992
c148 -71 290 -254 325 -422 8 -40 15 -123 15 -187 l0 -114 -359 0 c-229 0
-362 4 -366 10 -3 6 -15 10 -26 10 -31 0 -80 28 -127 73 -47 46 -82 125 -82
186 0 88 54 193 155 300 24 25 67 76 95 114 29 37 55 67 59 66 3 0 27 -26 53
-57 26 -31 81 -97 124 -147 42 -49 88 -115 102 -145 52 -109 26 -253 -58 -323
-16 -14 -30 -28 -30 -31 0 -3 47 -6 103 -6 l104 0 29 58 c27 53 29 65 29 172
0 104 -3 120 -27 173 -23 50 -198 274 -228 292 -6 3 -10 11 -10 16 0 14 32 4
120 -38z"/>
</g>
</svg>
