<?xml version="1.0" standalone="no"?>
<!DOCTYPE svg PUBLIC "-//W3C//DTD SVG 20010904//EN"
 "http://www.w3.org/TR/2001/REC-SVG-20010904/DTD/svg10.dtd">
<svg version="1.0" xmlns="http://www.w3.org/2000/svg"
 width="864" height="237" viewBox="0 0 864.000000 237.000000"
 preserveAspectRatio="xMidYMid meet">
<metadata>
Created by potrace 1.16, written by Peter Selinger 2001-2019
</metadata>
<g transform="translate(0.000000,237.000000) scale(0.100000,-0.100000)"
fill="#E4D6C4" stroke="none">
<path d="M6531 2206 c-9 -10 -121 -356 -121 -372 0 -1 9 -4 20 -7 17 -4 39 16
111 101 49 59 123 146 164 193 41 48 71 89 68 93 -4 3 -57 6 -118 6 -84 0
-115 -4 -124 -14z M2497 1557 c-43 -96 -77 -177 -77 -180 0 -3 -14 -35 -31
-72 -16 -36 -43 -96 -58 -133 -29 -69 -213 -493 -249 -573 -11 -24 -34 -78
-52 -119 -79 -183 -140 -243 -245 -242 -62 0 -162 39 -251 98 -32 21 -162 140
-289 264 -126 124 -276 270 -333 325 l-102 99 92 91 c445 436 494 478 598 511
90 28 100 33 100 49 0 13 -37 15 -286 15 l-285 0 3 -22 c2 -19 11 -24 51 -28
59 -7 93 -37 83 -73 -14 -57 -148 -204 -366 -402 -41 -37 -103 -95 -138 -127
-49 -47 -63 -56 -68 -43 -4 9 -4 136 -2 283 5 297 9 316 71 345 19 9 59 19 90
23 47 6 57 10 57 26 0 18 -13 18 -327 16 -283 -3 -328 -5 -328 -18 0 -10 20
-18 69 -27 38 -7 80 -20 93 -29 54 -35 54 -35 51 -688 -3 -563 -4 -604 -21
-630 -24 -36 -73 -56 -137 -56 -48 0 -51 -2 -48 -22 l3 -23 322 -3 323 -2 0
25 c0 23 -3 25 -50 25 -68 0 -127 25 -148 64 -14 27 -17 69 -17 319 -1 159 2
290 5 292 3 2 137 -126 298 -284 311 -305 315 -310 274 -362 -12 -14 -34 -24
-63 -28 -35 -5 -44 -10 -44 -26 0 -20 8 -20 601 -23 589 -2 602 -2 607 17 7
27 0 31 -45 31 -50 0 -103 23 -118 51 -19 34 -7 83 61 242 l62 147 295 -2 295
-3 59 -150 c88 -219 82 -268 -30 -282 -57 -6 -65 -12 -56 -37 5 -14 41 -16
305 -16 l299 0 0 25 c0 21 -5 25 -30 25 -89 0 -154 68 -227 236 -178 413 -284
661 -348 819 -143 350 -181 430 -202 433 -17 3 -31 -23 -96 -171z m145 -452
c44 -104 93 -220 108 -256 l28 -67 -247 -4 c-135 -3 -248 -3 -250 -2 -3 3 47
121 139 329 10 22 35 81 55 130 20 50 42 99 47 109 12 22 -2 49 120 -239z
M6384 1715 c-246 -54 -424 -189 -525 -398 -69 -144 -83 -205 -83 -367 -1 -172
18 -260 87 -400 43 -89 63 -117 132 -185 143 -142 307 -209 515 -209 137 0
232 23 351 85 269 140 427 462 390 794 -15 131 -32 187 -89 299 -73 144 -220
284 -351 335 -147 58 -297 74 -427 46z m259 -90 c31 -8 74 -26 94 -39 41 -26
118 -103 150 -151 27 -40 81 -209 93 -293 14 -97 12 -355 -4 -442 -39 -212
-132 -351 -286 -424 -61 -29 -72 -31 -180 -31 -104 0 -121 3 -172 27 -148 69
-253 241 -289 469 -18 122 -7 416 20 509 77 262 217 387 436 389 45 1 106 -6
138 -14z M7797 1709 c-84 -24 -119 -41 -174 -86 -85 -68 -143 -188 -143 -294
0 -75 36 -170 89 -236 54 -67 182 -157 352 -248 222 -118 322 -199 349 -279 7
-21 10 -65 8 -97 -17 -237 -377 -295 -602 -98 -49 43 -85 116 -114 229 -16 61
-23 76 -41 78 -21 3 -21 2 -23 -222 -1 -124 -2 -243 -2 -263 -1 -32 3 -39 21
-41 17 -3 26 6 42 42 18 41 23 46 53 46 19 0 81 -16 138 -36 231 -78 420 -63
572 46 187 133 224 392 81 568 -51 63 -115 107 -340 235 -328 187 -393 244
-393 346 1 237 343 309 541 115 55 -54 83 -107 105 -200 24 -99 31 -114 54
-114 20 0 20 6 20 265 0 259 0 265 -20 265 -13 0 -24 -10 -31 -27 -27 -71 -60
-78 -166 -34 -154 63 -257 74 -376 40z M3470 1671 c0 -15 10 -19 60 -24 71 -6
123 -35 141 -78 10 -25 13 -163 12 -628 0 -544 -1 -599 -17 -629 -25 -48 -70
-72 -137 -72 -63 0 -69 -3 -62 -31 5 -18 17 -19 335 -19 l329 0 -3 23 c-3 20
-10 23 -71 28 -79 7 -116 29 -134 80 -9 25 -12 193 -12 622 -1 621 -1 628 45
669 18 16 129 41 155 36 8 -2 15 7 17 20 l3 22 -330 0 c-316 0 -331 -1 -331
-19z M4214 1676 c-9 -23 -6 -24 62 -32 80 -9 117 -28 137 -70 15 -31 17 -95
17 -637 0 -578 -1 -603 -20 -634 -26 -43 -53 -56 -130 -62 -58 -5 -65 -8 -68
-29 l-3 -22 333 2 c331 3 333 3 336 24 3 20 -2 22 -67 26 -82 4 -119 26 -138
79 -8 23 -12 121 -12 302 l-1 267 75 0 75 0 40 -52 c22 -29 96 -132 165 -228
68 -96 162 -226 207 -288 46 -62 85 -117 86 -122 2 -6 86 -10 214 -10 l209 0
-3 22 c-2 18 -12 24 -46 30 -54 9 -140 48 -188 84 -20 16 -62 62 -94 104 -100
132 -350 481 -350 489 0 4 33 18 73 30 235 74 345 292 252 498 -31 70 -102
143 -169 176 -111 55 -148 59 -583 64 -369 5 -403 4 -409 -11z m768 -109 c110
-50 162 -139 163 -277 0 -88 -22 -142 -85 -208 -72 -74 -179 -112 -322 -112
l-78 0 0 304 0 304 63 10 c95 16 198 8 259 -21z"/>
</g>
</svg>
